<svg width="41" height="38" viewBox="0 0 41 38" fill="none" xmlns="http://www.w3.org/2000/svg">
<path d="M38.5227 0.451553L22.8931 12.0483L25.7962 5.20636L38.5227 0.451553Z" fill="#E2761B" stroke="#E2761B" stroke-width="0.156924" stroke-linecap="round" stroke-linejoin="round"/>
<path d="M2.47729 0.451553L17.9657 12.1581L15.2039 5.20636L2.47729 0.451553Z" fill="#E4761B" stroke="#E4761B" stroke-width="0.156924" stroke-linecap="round" stroke-linejoin="round"/>
<path d="M32.9048 27.3327L28.7463 33.7038L37.6439 36.1518L40.1861 27.4739L32.9048 27.3327Z" fill="#E4761B" stroke="#E4761B" stroke-width="0.156924" stroke-linecap="round" stroke-linejoin="round"/>
<path d="M0.82959 27.4739L3.35607 36.1518L12.2537 33.7038L8.11088 27.3327L0.82959 27.4739Z" fill="#E4761B" stroke="#E4761B" stroke-width="0.156924" stroke-linecap="round" stroke-linejoin="round"/>
<path d="M11.7672 16.5677L9.28784 20.3182L18.107 20.7105L17.8088 11.2166L11.7672 16.5677Z" fill="#E4761B" stroke="#E4761B" stroke-width="0.156924" stroke-linecap="round" stroke-linejoin="round"/>
<path d="M29.2328 16.5677L23.0971 11.1067L22.8931 20.7105L31.7122 20.3181L29.2328 16.5677Z" fill="#E4761B" stroke="#E4761B" stroke-width="0.156924" stroke-linecap="round" stroke-linejoin="round"/>
<path d="M12.2537 33.7038L17.5734 31.1146L12.9912 27.5367L12.2537 33.7038Z" fill="#E4761B" stroke="#E4761B" stroke-width="0.156924" stroke-linecap="round" stroke-linejoin="round"/>
<path d="M23.4268 31.1146L28.7465 33.7038L28.0089 27.5367L23.4268 31.1146Z" fill="#E4761B" stroke="#E4761B" stroke-width="0.156924" stroke-linecap="round" stroke-linejoin="round"/>
<path d="M28.7465 33.7037L23.4268 31.1145L23.8505 34.5825L23.8034 36.0419L28.7465 33.7037Z" fill="#D7C1B3" stroke="#D7C1B3" stroke-width="0.156924" stroke-linecap="round" stroke-linejoin="round"/>
<path d="M12.2537 33.7038L17.1968 36.042L17.1654 34.5826L17.5734 31.1145L12.2537 33.7038Z" fill="#D7C1B3" stroke="#D7C1B3" stroke-width="0.156924" stroke-linecap="round" stroke-linejoin="round"/>
<path d="M17.291 25.2456L12.8657 23.9431L15.9885 22.5151L17.291 25.2456Z" fill="#233447" stroke="#233447" stroke-width="0.156924" stroke-linecap="round" stroke-linejoin="round"/>
<path d="M23.709 25.2456L25.0115 22.5151L28.1499 23.9431L23.709 25.2456Z" fill="#233447" stroke="#233447" stroke-width="0.156924" stroke-linecap="round" stroke-linejoin="round"/>
<path d="M12.2536 33.7038L13.0226 27.3327L8.11084 27.4739L12.2536 33.7038Z" fill="#CD6116" stroke="#CD6116" stroke-width="0.156924" stroke-linecap="round" stroke-linejoin="round"/>
<path d="M27.9775 27.3327L28.7465 33.7038L32.905 27.4739L27.9775 27.3327Z" fill="#CD6116" stroke="#CD6116" stroke-width="0.156924" stroke-linecap="round" stroke-linejoin="round"/>
<path d="M31.7122 20.3181L22.8931 20.7104L23.7091 25.2455L25.0115 22.515L28.15 23.943L31.7122 20.3181Z" fill="#CD6116" stroke="#CD6116" stroke-width="0.156924" stroke-linecap="round" stroke-linejoin="round"/>
<path d="M12.8657 23.943L15.9885 22.515L17.291 25.2455L18.107 20.7104L9.28784 20.3181L12.8657 23.943Z" fill="#CD6116" stroke="#CD6116" stroke-width="0.156924" stroke-linecap="round" stroke-linejoin="round"/>
<path d="M9.28784 20.3182L12.9913 27.5367L12.8657 23.9431L9.28784 20.3182Z" fill="#E4751F" stroke="#E4751F" stroke-width="0.156924" stroke-linecap="round" stroke-linejoin="round"/>
<path d="M28.15 23.943L28.0088 27.5366L31.7122 20.3181L28.15 23.943Z" fill="#E4751F" stroke="#E4751F" stroke-width="0.156924" stroke-linecap="round" stroke-linejoin="round"/>
<path d="M18.107 20.7104L17.291 25.2455L18.3267 30.5966L18.5464 23.5507L18.107 20.7104Z" fill="#E4751F" stroke="#E4751F" stroke-width="0.156924" stroke-linecap="round" stroke-linejoin="round"/>
<path d="M22.8932 20.7104L22.4695 23.5351L22.6735 30.5966L23.7092 25.2455L22.8932 20.7104Z" fill="#E4751F" stroke="#E4751F" stroke-width="0.156924" stroke-linecap="round" stroke-linejoin="round"/>
<path d="M23.709 25.2456L22.6733 30.5967L23.4266 31.1146L28.0088 27.5367L28.15 23.9431L23.709 25.2456Z" fill="#F6851B" stroke="#F6851B" stroke-width="0.156924" stroke-linecap="round" stroke-linejoin="round"/>
<path d="M12.8657 23.9431L12.9913 27.5367L17.5735 31.1146L18.3267 30.5967L17.291 25.2456L12.8657 23.9431Z" fill="#F6851B" stroke="#F6851B" stroke-width="0.156924" stroke-linecap="round" stroke-linejoin="round"/>
<path d="M23.8033 36.042L23.8504 34.5826L23.4581 34.2373H17.542L17.1654 34.5826L17.1968 36.042L12.2537 33.7038L13.9798 35.1161L17.4949 37.5484H23.5051L27.0202 35.1161L28.7464 33.7038L23.8033 36.042Z" fill="#C0AD9E" stroke="#C0AD9E" stroke-width="0.156924" stroke-linecap="round" stroke-linejoin="round"/>
<path d="M23.4266 31.1146L22.6733 30.5967H18.3265L17.5733 31.1146L17.1653 34.5826L17.5419 34.2374H23.4579L23.8503 34.5826L23.4266 31.1146Z" fill="#161616" stroke="#161616" stroke-width="0.156924" stroke-linecap="round" stroke-linejoin="round"/>
<path d="M39.1817 12.8015L40.4999 6.39898L38.5226 0.451553L23.4265 11.6559L29.2327 16.5677L37.4399 18.9686L39.2445 16.8501L38.4599 16.2852L39.7153 15.1397L38.758 14.3864L40.0134 13.4292L39.1817 12.8015Z" fill="#763D16" stroke="#763D16" stroke-width="0.156924" stroke-linecap="round" stroke-linejoin="round"/>
<path d="M0.5 6.39898L1.83386 12.8015L0.986466 13.4292L2.24186 14.3864L1.28462 15.1397L2.54002 16.2852L1.75539 16.8501L3.56002 18.9686L11.7672 16.5677L17.5734 11.6559L2.47725 0.451553L0.5 6.39898Z" fill="#763D16" stroke="#763D16" stroke-width="0.156924" stroke-linecap="round" stroke-linejoin="round"/>
<path d="M37.4399 18.9686L29.2328 16.5677L31.7122 20.3182L28.0088 27.5367L32.9048 27.4739H40.1861L37.4399 18.9686Z" fill="#F6851B" stroke="#F6851B" stroke-width="0.156924" stroke-linecap="round" stroke-linejoin="round"/>
<path d="M11.7672 16.5677L3.56007 18.9686L0.82959 27.4739H8.11088L12.9912 27.5367L9.28781 20.3182L11.7672 16.5677Z" fill="#F6851B" stroke="#F6851B" stroke-width="0.156924" stroke-linecap="round" stroke-linejoin="round"/>
<path d="M22.8931 20.7105L23.4267 11.6559L25.7962 5.20636H15.2039L17.5734 11.6559L18.107 20.7105L18.311 23.5665L18.3266 30.5967H22.6735L22.6891 23.5665L22.8931 20.7105Z" fill="#F6851B" stroke="#F6851B" stroke-width="0.156924" stroke-linecap="round" stroke-linejoin="round"/>
</svg>